<mxfile host="app.diagrams.net" agent="Mozilla/5.0 (Windows NT 10.0; Win64; x64) AppleWebKit/537.36 (KHTML, like Gecko) Chrome/130.0.0.0 Safari/537.36" version="24.8.6">
  <diagram name="Page-1" id="2YBvvXClWsGukQMizWep">
    <mxGraphModel dx="1674" dy="746" grid="1" gridSize="10" guides="1" tooltips="1" connect="1" arrows="1" fold="1" page="1" pageScale="1" pageWidth="850" pageHeight="1100" background="#ffffff" math="0" shadow="0">
      <root>
        <mxCell id="0" />
        <mxCell id="1" parent="0" />
        <mxCell id="aM9ryv3xv72pqoxQDRHE-1" value="입금 서비스" style="shape=umlLifeline;perimeter=lifelinePerimeter;whiteSpace=wrap;html=1;container=0;dropTarget=0;collapsible=0;recursiveResize=0;outlineConnect=0;portConstraint=eastwest;newEdgeStyle={&quot;edgeStyle&quot;:&quot;elbowEdgeStyle&quot;,&quot;elbow&quot;:&quot;vertical&quot;,&quot;curved&quot;:0,&quot;rounded&quot;:0};" parent="1" vertex="1">
          <mxGeometry x="200" y="40" width="100" height="1240" as="geometry" />
        </mxCell>
        <mxCell id="aM9ryv3xv72pqoxQDRHE-2" value="" style="html=1;points=[];perimeter=orthogonalPerimeter;outlineConnect=0;targetShapes=umlLifeline;portConstraint=eastwest;newEdgeStyle={&quot;edgeStyle&quot;:&quot;elbowEdgeStyle&quot;,&quot;elbow&quot;:&quot;vertical&quot;,&quot;curved&quot;:0,&quot;rounded&quot;:0};" parent="aM9ryv3xv72pqoxQDRHE-1" vertex="1">
          <mxGeometry x="45" y="50" width="10" height="1170" as="geometry" />
        </mxCell>
        <mxCell id="aM9ryv3xv72pqoxQDRHE-5" value="수신모듈" style="shape=umlLifeline;perimeter=lifelinePerimeter;whiteSpace=wrap;html=1;container=0;dropTarget=0;collapsible=0;recursiveResize=0;outlineConnect=0;portConstraint=eastwest;newEdgeStyle={&quot;edgeStyle&quot;:&quot;elbowEdgeStyle&quot;,&quot;elbow&quot;:&quot;vertical&quot;,&quot;curved&quot;:0,&quot;rounded&quot;:0};" parent="1" vertex="1">
          <mxGeometry x="400" y="40" width="100" height="1240" as="geometry" />
        </mxCell>
        <mxCell id="aM9ryv3xv72pqoxQDRHE-6" value="" style="html=1;points=[];perimeter=orthogonalPerimeter;outlineConnect=0;targetShapes=umlLifeline;portConstraint=eastwest;newEdgeStyle={&quot;edgeStyle&quot;:&quot;elbowEdgeStyle&quot;,&quot;elbow&quot;:&quot;vertical&quot;,&quot;curved&quot;:0,&quot;rounded&quot;:0};" parent="aM9ryv3xv72pqoxQDRHE-5" vertex="1">
          <mxGeometry x="45.25" y="170" width="10" height="50" as="geometry" />
        </mxCell>
        <mxCell id="wWB3ccr9Y3mbF4L6saMw-12" value="" style="html=1;points=[];perimeter=orthogonalPerimeter;outlineConnect=0;targetShapes=umlLifeline;portConstraint=eastwest;newEdgeStyle={&quot;edgeStyle&quot;:&quot;elbowEdgeStyle&quot;,&quot;elbow&quot;:&quot;vertical&quot;,&quot;curved&quot;:0,&quot;rounded&quot;:0};" parent="aM9ryv3xv72pqoxQDRHE-5" vertex="1">
          <mxGeometry x="45.25" y="360" width="10" height="100" as="geometry" />
        </mxCell>
        <mxCell id="kIjc9tb8nOZSVFgZSKF5-17" value="" style="html=1;points=[];perimeter=orthogonalPerimeter;outlineConnect=0;targetShapes=umlLifeline;portConstraint=eastwest;newEdgeStyle={&quot;edgeStyle&quot;:&quot;elbowEdgeStyle&quot;,&quot;elbow&quot;:&quot;vertical&quot;,&quot;curved&quot;:0,&quot;rounded&quot;:0};" parent="aM9ryv3xv72pqoxQDRHE-5" vertex="1">
          <mxGeometry x="45" y="660" width="10" height="60" as="geometry" />
        </mxCell>
        <mxCell id="aM9ryv3xv72pqoxQDRHE-7" value="계좌검증" style="html=1;verticalAlign=bottom;endArrow=block;edgeStyle=elbowEdgeStyle;elbow=vertical;curved=0;rounded=0;" parent="1" edge="1">
          <mxGeometry relative="1" as="geometry">
            <mxPoint x="255" y="220" as="sourcePoint" />
            <Array as="points">
              <mxPoint x="380" y="220" />
            </Array>
            <mxPoint as="offset" />
            <mxPoint x="445" y="220" as="targetPoint" />
          </mxGeometry>
        </mxCell>
        <mxCell id="aM9ryv3xv72pqoxQDRHE-9" value="return" style="html=1;verticalAlign=bottom;endArrow=block;edgeStyle=elbowEdgeStyle;elbow=vertical;curved=0;rounded=0;" parent="1" source="aM9ryv3xv72pqoxQDRHE-6" edge="1">
          <mxGeometry relative="1" as="geometry">
            <mxPoint x="375.25" y="250" as="sourcePoint" />
            <Array as="points">
              <mxPoint x="390.25" y="250" />
            </Array>
            <mxPoint x="255.25" y="250" as="targetPoint" />
          </mxGeometry>
        </mxCell>
        <mxCell id="7ABqUD8M8o28JcpTFlhN-1" value="공통모듈" style="shape=umlLifeline;perimeter=lifelinePerimeter;whiteSpace=wrap;html=1;container=0;dropTarget=0;collapsible=0;recursiveResize=0;outlineConnect=0;portConstraint=eastwest;newEdgeStyle={&quot;edgeStyle&quot;:&quot;elbowEdgeStyle&quot;,&quot;elbow&quot;:&quot;vertical&quot;,&quot;curved&quot;:0,&quot;rounded&quot;:0};" parent="1" vertex="1">
          <mxGeometry x="600" y="40" width="100" height="1240" as="geometry" />
        </mxCell>
        <mxCell id="7ABqUD8M8o28JcpTFlhN-2" value="" style="html=1;points=[];perimeter=orthogonalPerimeter;outlineConnect=0;targetShapes=umlLifeline;portConstraint=eastwest;newEdgeStyle={&quot;edgeStyle&quot;:&quot;elbowEdgeStyle&quot;,&quot;elbow&quot;:&quot;vertical&quot;,&quot;curved&quot;:0,&quot;rounded&quot;:0};" parent="7ABqUD8M8o28JcpTFlhN-1" vertex="1">
          <mxGeometry x="45.25" y="250" width="10" height="60" as="geometry" />
        </mxCell>
        <mxCell id="wWB3ccr9Y3mbF4L6saMw-28" value="" style="html=1;points=[];perimeter=orthogonalPerimeter;outlineConnect=0;targetShapes=umlLifeline;portConstraint=eastwest;newEdgeStyle={&quot;edgeStyle&quot;:&quot;elbowEdgeStyle&quot;,&quot;elbow&quot;:&quot;vertical&quot;,&quot;curved&quot;:0,&quot;rounded&quot;:0};" parent="7ABqUD8M8o28JcpTFlhN-1" vertex="1">
          <mxGeometry x="45.25" y="500" width="10" height="60" as="geometry" />
        </mxCell>
        <mxCell id="kIjc9tb8nOZSVFgZSKF5-21" value="" style="html=1;points=[];perimeter=orthogonalPerimeter;outlineConnect=0;targetShapes=umlLifeline;portConstraint=eastwest;newEdgeStyle={&quot;edgeStyle&quot;:&quot;elbowEdgeStyle&quot;,&quot;elbow&quot;:&quot;vertical&quot;,&quot;curved&quot;:0,&quot;rounded&quot;:0};" parent="7ABqUD8M8o28JcpTFlhN-1" vertex="1">
          <mxGeometry x="45" y="780" width="10" height="60" as="geometry" />
        </mxCell>
        <mxCell id="kIjc9tb8nOZSVFgZSKF5-6" value="" style="html=1;points=[];perimeter=orthogonalPerimeter;outlineConnect=0;targetShapes=umlLifeline;portConstraint=eastwest;newEdgeStyle={&quot;edgeStyle&quot;:&quot;elbowEdgeStyle&quot;,&quot;elbow&quot;:&quot;vertical&quot;,&quot;curved&quot;:0,&quot;rounded&quot;:0};" parent="7ABqUD8M8o28JcpTFlhN-1" vertex="1">
          <mxGeometry x="45" y="60" width="10" height="60" as="geometry" />
        </mxCell>
        <mxCell id="7ABqUD8M8o28JcpTFlhN-3" value="알림모듈" style="shape=umlLifeline;perimeter=lifelinePerimeter;whiteSpace=wrap;html=1;container=0;dropTarget=0;collapsible=0;recursiveResize=0;outlineConnect=0;portConstraint=eastwest;newEdgeStyle={&quot;edgeStyle&quot;:&quot;elbowEdgeStyle&quot;,&quot;elbow&quot;:&quot;vertical&quot;,&quot;curved&quot;:0,&quot;rounded&quot;:0};" parent="1" vertex="1">
          <mxGeometry x="800" y="40" width="100" height="1240" as="geometry" />
        </mxCell>
        <mxCell id="wWB3ccr9Y3mbF4L6saMw-31" value="" style="html=1;points=[];perimeter=orthogonalPerimeter;outlineConnect=0;targetShapes=umlLifeline;portConstraint=eastwest;newEdgeStyle={&quot;edgeStyle&quot;:&quot;elbowEdgeStyle&quot;,&quot;elbow&quot;:&quot;vertical&quot;,&quot;curved&quot;:0,&quot;rounded&quot;:0};" parent="7ABqUD8M8o28JcpTFlhN-3" vertex="1">
          <mxGeometry x="45" y="1105" width="10" height="80" as="geometry" />
        </mxCell>
        <mxCell id="7ABqUD8M8o28JcpTFlhN-5" value="레포지토리" style="shape=umlLifeline;perimeter=lifelinePerimeter;whiteSpace=wrap;html=1;container=0;dropTarget=0;collapsible=0;recursiveResize=0;outlineConnect=0;portConstraint=eastwest;newEdgeStyle={&quot;edgeStyle&quot;:&quot;elbowEdgeStyle&quot;,&quot;elbow&quot;:&quot;vertical&quot;,&quot;curved&quot;:0,&quot;rounded&quot;:0};" parent="1" vertex="1">
          <mxGeometry x="1000" y="40" width="100" height="1240" as="geometry" />
        </mxCell>
        <mxCell id="wWB3ccr9Y3mbF4L6saMw-11" value="" style="shape=umlActor;verticalLabelPosition=bottom;verticalAlign=top;html=1;outlineConnect=0;" parent="1" vertex="1">
          <mxGeometry x="100" y="70" width="30" height="60" as="geometry" />
        </mxCell>
        <mxCell id="wWB3ccr9Y3mbF4L6saMw-14" value="&lt;div style=&quot;&quot;&gt;&lt;span style=&quot;background-color: initial;&quot;&gt;1.가능여부 검증(계좌종류)&lt;/span&gt;&lt;/div&gt;&lt;div style=&quot;&quot;&gt;&lt;span style=&quot;background-color: initial;&quot;&gt;2.만기일 확인 등&lt;/span&gt;&lt;/div&gt;" style="text;html=1;align=left;verticalAlign=middle;resizable=0;points=[];autosize=1;strokeColor=none;fillColor=none;" parent="1" vertex="1">
          <mxGeometry x="460.25" y="210" width="160" height="40" as="geometry" />
        </mxCell>
        <mxCell id="wWB3ccr9Y3mbF4L6saMw-16" value="고객 검증" style="html=1;verticalAlign=bottom;endArrow=block;edgeStyle=elbowEdgeStyle;elbow=vertical;curved=0;rounded=0;" parent="1" edge="1" target="7ABqUD8M8o28JcpTFlhN-2" source="aM9ryv3xv72pqoxQDRHE-2">
          <mxGeometry relative="1" as="geometry">
            <mxPoint x="260.25" y="300" as="sourcePoint" />
            <Array as="points">
              <mxPoint x="385.25" y="300" />
            </Array>
            <mxPoint x="580" y="300" as="targetPoint" />
            <mxPoint as="offset" />
          </mxGeometry>
        </mxCell>
        <mxCell id="wWB3ccr9Y3mbF4L6saMw-17" value="return" style="html=1;verticalAlign=bottom;endArrow=block;edgeStyle=elbowEdgeStyle;elbow=vertical;curved=0;rounded=0;" parent="1" edge="1">
          <mxGeometry relative="1" as="geometry">
            <mxPoint x="645.25" y="340" as="sourcePoint" />
            <Array as="points">
              <mxPoint x="590.25" y="340" />
            </Array>
            <mxPoint x="255.25" y="340" as="targetPoint" />
          </mxGeometry>
        </mxCell>
        <mxCell id="wWB3ccr9Y3mbF4L6saMw-18" value="&lt;div style=&quot;&quot;&gt;&lt;span style=&quot;background-color: initial;&quot;&gt;1.정상고객 검증&lt;/span&gt;&lt;/div&gt;&lt;div style=&quot;&quot;&gt;&lt;span style=&quot;background-color: initial;&quot;&gt;2.블랙리스트 확인&lt;/span&gt;&lt;/div&gt;&lt;div style=&quot;&quot;&gt;&lt;span style=&quot;background-color: initial;&quot;&gt;3.기타 외부기관 연계 검증&lt;/span&gt;&lt;/div&gt;" style="text;html=1;align=left;verticalAlign=middle;resizable=0;points=[];autosize=1;strokeColor=none;fillColor=none;" parent="1" vertex="1">
          <mxGeometry x="660.25" y="290" width="160" height="60" as="geometry" />
        </mxCell>
        <mxCell id="wWB3ccr9Y3mbF4L6saMw-19" value="입금 프로세스(debit)" style="html=1;verticalAlign=bottom;endArrow=block;edgeStyle=elbowEdgeStyle;elbow=vertical;curved=0;rounded=0;" parent="1" target="wWB3ccr9Y3mbF4L6saMw-12" edge="1">
          <mxGeometry relative="1" as="geometry">
            <mxPoint x="255.25" y="410" as="sourcePoint" />
            <Array as="points">
              <mxPoint x="385.25" y="410" />
            </Array>
            <mxPoint x="430.25" y="410" as="targetPoint" />
            <mxPoint as="offset" />
          </mxGeometry>
        </mxCell>
        <mxCell id="wWB3ccr9Y3mbF4L6saMw-21" value="return" style="html=1;verticalAlign=bottom;endArrow=block;edgeStyle=elbowEdgeStyle;elbow=vertical;curved=0;rounded=0;" parent="1" edge="1" target="aM9ryv3xv72pqoxQDRHE-2" source="wWB3ccr9Y3mbF4L6saMw-12">
          <mxGeometry relative="1" as="geometry">
            <mxPoint x="400" y="490" as="sourcePoint" />
            <Array as="points">
              <mxPoint x="385.25" y="490" />
            </Array>
            <mxPoint x="340" y="490" as="targetPoint" />
          </mxGeometry>
        </mxCell>
        <mxCell id="wWB3ccr9Y3mbF4L6saMw-23" value="수신거래내역 INSERT (DEPOSIT_TRSC_HIS)&lt;div&gt;진행코드-입금완료&lt;/div&gt;" style="html=1;verticalAlign=bottom;endArrow=block;edgeStyle=elbowEdgeStyle;elbow=vertical;curved=0;rounded=0;" parent="1" source="wWB3ccr9Y3mbF4L6saMw-12" edge="1">
          <mxGeometry relative="1" as="geometry">
            <mxPoint x="460.25" y="430" as="sourcePoint" />
            <Array as="points">
              <mxPoint x="590.25" y="430" />
            </Array>
            <mxPoint x="1049.75" y="430" as="targetPoint" />
            <mxPoint as="offset" />
          </mxGeometry>
        </mxCell>
        <mxCell id="wWB3ccr9Y3mbF4L6saMw-24" value="수신계좌정보 UPDATE (DEPOSIT_INFO)&lt;div&gt;잔액변경&lt;/div&gt;" style="html=1;verticalAlign=bottom;endArrow=block;edgeStyle=elbowEdgeStyle;elbow=vertical;curved=0;rounded=0;" parent="1" source="wWB3ccr9Y3mbF4L6saMw-12" edge="1">
          <mxGeometry relative="1" as="geometry">
            <mxPoint x="490.25" y="480" as="sourcePoint" />
            <Array as="points">
              <mxPoint x="590.25" y="480" />
            </Array>
            <mxPoint x="1050.25" y="480" as="targetPoint" />
            <mxPoint as="offset" />
          </mxGeometry>
        </mxCell>
        <mxCell id="wWB3ccr9Y3mbF4L6saMw-25" value="거래 연관관계 저장" style="html=1;verticalAlign=bottom;endArrow=block;edgeStyle=elbowEdgeStyle;elbow=vertical;curved=0;rounded=0;" parent="1" edge="1" target="wWB3ccr9Y3mbF4L6saMw-28" source="aM9ryv3xv72pqoxQDRHE-2">
          <mxGeometry relative="1" as="geometry">
            <mxPoint x="270" y="550" as="sourcePoint" />
            <Array as="points">
              <mxPoint x="400" y="550" />
            </Array>
            <mxPoint x="600" y="550" as="targetPoint" />
            <mxPoint as="offset" />
          </mxGeometry>
        </mxCell>
        <mxCell id="wWB3ccr9Y3mbF4L6saMw-29" value="&lt;div style=&quot;&quot;&gt;&lt;br&gt;&lt;/div&gt;" style="text;html=1;align=left;verticalAlign=middle;resizable=0;points=[];autosize=1;strokeColor=none;fillColor=none;" parent="1" vertex="1">
          <mxGeometry x="660.25" y="555" width="20" height="30" as="geometry" />
        </mxCell>
        <mxCell id="wWB3ccr9Y3mbF4L6saMw-30" value="return" style="html=1;verticalAlign=bottom;endArrow=block;edgeStyle=elbowEdgeStyle;elbow=vertical;curved=0;rounded=0;" parent="1" edge="1" target="aM9ryv3xv72pqoxQDRHE-2" source="wWB3ccr9Y3mbF4L6saMw-28">
          <mxGeometry relative="1" as="geometry">
            <mxPoint x="700" y="590" as="sourcePoint" />
            <Array as="points">
              <mxPoint x="645" y="590" />
            </Array>
            <mxPoint x="310" y="590" as="targetPoint" />
          </mxGeometry>
        </mxCell>
        <mxCell id="wWB3ccr9Y3mbF4L6saMw-32" value="알림메시지 큐 등록" style="html=1;verticalAlign=bottom;endArrow=block;edgeStyle=elbowEdgeStyle;elbow=vertical;curved=0;rounded=0;" parent="1" edge="1" target="wWB3ccr9Y3mbF4L6saMw-31">
          <mxGeometry relative="1" as="geometry">
            <mxPoint x="255" y="1155" as="sourcePoint" />
            <Array as="points">
              <mxPoint x="385" y="1155" />
            </Array>
            <mxPoint x="780" y="1155" as="targetPoint" />
            <mxPoint as="offset" />
          </mxGeometry>
        </mxCell>
        <mxCell id="wWB3ccr9Y3mbF4L6saMw-33" value="return" style="html=1;verticalAlign=bottom;endArrow=block;edgeStyle=elbowEdgeStyle;elbow=vertical;curved=0;rounded=0;" parent="1" edge="1" target="aM9ryv3xv72pqoxQDRHE-2" source="wWB3ccr9Y3mbF4L6saMw-31">
          <mxGeometry relative="1" as="geometry">
            <mxPoint x="790" y="1215" as="sourcePoint" />
            <Array as="points">
              <mxPoint x="385.5" y="1215" />
            </Array>
            <mxPoint x="330" y="1215" as="targetPoint" />
          </mxGeometry>
        </mxCell>
        <mxCell id="wWB3ccr9Y3mbF4L6saMw-34" value="&lt;div style=&quot;font-size: 12px; background-color: rgb(251, 251, 251);&quot;&gt;거래연관관계 INSERT (TRSC_RELATION)&lt;/div&gt;&lt;div style=&quot;font-size: 12px; background-color: rgb(251, 251, 251);&quot;&gt;&lt;span style=&quot;background-color: initial;&quot;&gt;주체가 되는 카카오고객번호를 Key로&amp;nbsp;&lt;/span&gt;&lt;span style=&quot;background-color: initial;&quot;&gt;상대거래종류코드(계좌,카톡 등)&lt;/span&gt;&lt;/div&gt;&lt;div style=&quot;font-size: 12px; background-color: rgb(251, 251, 251);&quot;&gt;&lt;span style=&quot;background-color: initial;&quot;&gt;상대연관번호까지 저장&lt;/span&gt;&lt;/div&gt;" style="html=1;verticalAlign=bottom;endArrow=block;edgeStyle=elbowEdgeStyle;elbow=vertical;curved=0;rounded=0;align=center;" parent="1" edge="1" source="wWB3ccr9Y3mbF4L6saMw-28">
          <mxGeometry relative="1" as="geometry">
            <mxPoint x="710" y="570" as="sourcePoint" />
            <Array as="points">
              <mxPoint x="700" y="570" />
            </Array>
            <mxPoint x="1049.75" y="569.5" as="targetPoint" />
            <mxPoint as="offset" />
          </mxGeometry>
        </mxCell>
        <mxCell id="wWB3ccr9Y3mbF4L6saMw-35" value="" style="html=1;verticalAlign=bottom;endArrow=block;edgeStyle=elbowEdgeStyle;elbow=vertical;curved=0;rounded=0;align=center;" parent="1" edge="1" source="wWB3ccr9Y3mbF4L6saMw-31">
          <mxGeometry relative="1" as="geometry">
            <mxPoint x="980" y="1200" as="sourcePoint" />
            <Array as="points" />
            <mxPoint x="1050" y="1186" as="targetPoint" />
            <mxPoint as="offset" />
          </mxGeometry>
        </mxCell>
        <mxCell id="wWB3ccr9Y3mbF4L6saMw-36" value="&lt;div style=&quot;&quot;&gt;&lt;span style=&quot;font-size: 11px; text-align: center; background-color: rgb(255, 255, 255);&quot;&gt;알림메시지큐 INSERT (NOTIFICATION_QUEUE)&lt;/span&gt;&lt;div style=&quot;font-size: 11px; text-align: center;&quot;&gt;PK는 AUTO INCREASE 설정하여 저장만 함&lt;/div&gt;&lt;div style=&quot;font-size: 11px; text-align: center;&quot;&gt;추후 데몬성 배치에서 카프카 등으로 실제 알림전송&lt;/div&gt;&lt;/div&gt;" style="text;html=1;align=left;verticalAlign=middle;resizable=0;points=[];autosize=1;strokeColor=none;fillColor=none;" parent="1" vertex="1">
          <mxGeometry x="860" y="1130" width="270" height="50" as="geometry" />
        </mxCell>
        <mxCell id="aM9ryv3xv72pqoxQDRHE-3" value="입금" style="html=1;verticalAlign=bottom;startArrow=oval;endArrow=block;startSize=8;edgeStyle=elbowEdgeStyle;elbow=vertical;curved=0;rounded=0;" parent="1" edge="1">
          <mxGeometry x="0.0118" relative="1" as="geometry">
            <mxPoint x="140" y="100" as="sourcePoint" />
            <mxPoint x="245" y="100" as="targetPoint" />
            <mxPoint as="offset" />
          </mxGeometry>
        </mxCell>
        <mxCell id="kIjc9tb8nOZSVFgZSKF5-5" value="case1" style="shape=umlFrame;whiteSpace=wrap;html=1;pointerEvents=0;" parent="1" vertex="1">
          <mxGeometry x="190.25" y="170" width="960" height="450" as="geometry" />
        </mxCell>
        <mxCell id="kIjc9tb8nOZSVFgZSKF5-7" value="카카오고객 검증" style="html=1;verticalAlign=bottom;endArrow=block;edgeStyle=elbowEdgeStyle;elbow=vertical;curved=0;rounded=0;" parent="1" edge="1" target="kIjc9tb8nOZSVFgZSKF5-6">
          <mxGeometry relative="1" as="geometry">
            <mxPoint x="255" y="110" as="sourcePoint" />
            <Array as="points">
              <mxPoint x="380" y="110" />
            </Array>
            <mxPoint x="580" y="110" as="targetPoint" />
            <mxPoint as="offset" />
          </mxGeometry>
        </mxCell>
        <mxCell id="kIjc9tb8nOZSVFgZSKF5-8" value="return" style="html=1;verticalAlign=bottom;endArrow=block;edgeStyle=elbowEdgeStyle;elbow=vertical;curved=0;rounded=0;" parent="1" edge="1" target="aM9ryv3xv72pqoxQDRHE-1" source="kIjc9tb8nOZSVFgZSKF5-6">
          <mxGeometry relative="1" as="geometry">
            <mxPoint x="580" y="150" as="sourcePoint" />
            <Array as="points" />
            <mxPoint x="310" y="150" as="targetPoint" />
          </mxGeometry>
        </mxCell>
        <mxCell id="kIjc9tb8nOZSVFgZSKF5-9" value="&lt;div style=&quot;&quot;&gt;&lt;span style=&quot;background-color: initial;&quot;&gt;1.정상고객 검증&lt;/span&gt;&lt;/div&gt;&lt;div style=&quot;&quot;&gt;&lt;span style=&quot;background-color: initial;&quot;&gt;2.블랙리스트 확인&lt;/span&gt;&lt;/div&gt;&lt;div style=&quot;&quot;&gt;&lt;span style=&quot;background-color: initial;&quot;&gt;3.기타 외부기관 연계 검증&lt;/span&gt;&lt;/div&gt;" style="text;html=1;align=left;verticalAlign=middle;resizable=0;points=[];autosize=1;strokeColor=none;fillColor=none;" parent="1" vertex="1">
          <mxGeometry x="655" y="100" width="160" height="60" as="geometry" />
        </mxCell>
        <mxCell id="kIjc9tb8nOZSVFgZSKF5-10" value="&lt;div style=&quot;&quot;&gt;카카오뱅크 계좌가 있는 경우(카카오뱅크 계좌로 입금하는 경우)&lt;/div&gt;" style="text;html=1;align=left;verticalAlign=middle;resizable=0;points=[];autosize=1;strokeColor=none;fillColor=none;" parent="1" vertex="1">
          <mxGeometry x="260" y="169" width="360" height="30" as="geometry" />
        </mxCell>
        <mxCell id="kIjc9tb8nOZSVFgZSKF5-11" value="case2" style="shape=umlFrame;whiteSpace=wrap;html=1;pointerEvents=0;" parent="1" vertex="1">
          <mxGeometry x="190.25" y="620" width="960" height="500" as="geometry" />
        </mxCell>
        <mxCell id="kIjc9tb8nOZSVFgZSKF5-12" value="&lt;div style=&quot;&quot;&gt;카카오뱅크 계좌가 없는 경우&lt;/div&gt;" style="text;html=1;align=left;verticalAlign=middle;resizable=0;points=[];autosize=1;strokeColor=none;fillColor=none;" parent="1" vertex="1">
          <mxGeometry x="260" y="620" width="180" height="30" as="geometry" />
        </mxCell>
        <mxCell id="kIjc9tb8nOZSVFgZSKF5-13" value="case2-1" style="shape=umlFrame;whiteSpace=wrap;html=1;pointerEvents=0;" parent="1" vertex="1">
          <mxGeometry x="200" y="660" width="940" height="110" as="geometry" />
        </mxCell>
        <mxCell id="kIjc9tb8nOZSVFgZSKF5-14" value="카카오뱅크 신규계좌 생성" style="text;html=1;align=left;verticalAlign=middle;resizable=0;points=[];autosize=1;strokeColor=none;fillColor=none;" parent="1" vertex="1">
          <mxGeometry x="270" y="660" width="160" height="30" as="geometry" />
        </mxCell>
        <mxCell id="kIjc9tb8nOZSVFgZSKF5-15" value="case2-2" style="shape=umlFrame;whiteSpace=wrap;html=1;pointerEvents=0;" parent="1" vertex="1">
          <mxGeometry x="200.25" y="770" width="940" height="340" as="geometry" />
        </mxCell>
        <mxCell id="kIjc9tb8nOZSVFgZSKF5-16" value="타행으로 계좌이체" style="text;html=1;align=left;verticalAlign=middle;resizable=0;points=[];autosize=1;strokeColor=none;fillColor=none;" parent="1" vertex="1">
          <mxGeometry x="270" y="770" width="120" height="30" as="geometry" />
        </mxCell>
        <mxCell id="kIjc9tb8nOZSVFgZSKF5-18" value="계좌 신규개설 프로세스(open)" style="html=1;verticalAlign=bottom;endArrow=block;edgeStyle=elbowEdgeStyle;elbow=horizontal;curved=0;rounded=0;" parent="1" edge="1">
          <mxGeometry relative="1" as="geometry">
            <mxPoint x="255.12" y="710" as="sourcePoint" />
            <Array as="points">
              <mxPoint x="385.12" y="710" />
            </Array>
            <mxPoint x="444.87" y="710" as="targetPoint" />
            <mxPoint as="offset" />
          </mxGeometry>
        </mxCell>
        <mxCell id="kIjc9tb8nOZSVFgZSKF5-19" value="return" style="html=1;verticalAlign=bottom;endArrow=block;edgeStyle=elbowEdgeStyle;elbow=vertical;curved=0;rounded=0;" parent="1" edge="1" target="aM9ryv3xv72pqoxQDRHE-2" source="kIjc9tb8nOZSVFgZSKF5-17">
          <mxGeometry relative="1" as="geometry">
            <mxPoint x="420" y="750" as="sourcePoint" />
            <Array as="points">
              <mxPoint x="385.25" y="750" />
            </Array>
            <mxPoint x="310" y="750" as="targetPoint" />
          </mxGeometry>
        </mxCell>
        <mxCell id="kIjc9tb8nOZSVFgZSKF5-20" value="타행이체(interbank)" style="html=1;verticalAlign=bottom;endArrow=block;edgeStyle=elbowEdgeStyle;elbow=vertical;curved=0;rounded=0;" parent="1" target="kIjc9tb8nOZSVFgZSKF5-21" edge="1">
          <mxGeometry relative="1" as="geometry">
            <mxPoint x="255.12" y="830" as="sourcePoint" />
            <Array as="points">
              <mxPoint x="385.12" y="830" />
            </Array>
            <mxPoint x="444.87" y="830" as="targetPoint" />
            <mxPoint as="offset" />
          </mxGeometry>
        </mxCell>
        <mxCell id="kIjc9tb8nOZSVFgZSKF5-26" value="" style="html=1;points=[];perimeter=orthogonalPerimeter;outlineConnect=0;targetShapes=umlLifeline;portConstraint=eastwest;newEdgeStyle={&quot;edgeStyle&quot;:&quot;elbowEdgeStyle&quot;,&quot;elbow&quot;:&quot;vertical&quot;,&quot;curved&quot;:0,&quot;rounded&quot;:0};" parent="1" vertex="1">
          <mxGeometry x="645" y="905" width="10" height="60" as="geometry" />
        </mxCell>
        <mxCell id="kIjc9tb8nOZSVFgZSKF5-27" value="거래 연관관계 저장" style="html=1;verticalAlign=bottom;endArrow=block;edgeStyle=elbowEdgeStyle;elbow=vertical;curved=0;rounded=0;" parent="1" edge="1">
          <mxGeometry relative="1" as="geometry">
            <mxPoint x="255.25" y="920" as="sourcePoint" />
            <Array as="points">
              <mxPoint x="385.25" y="920" />
            </Array>
            <mxPoint x="644.75" y="920" as="targetPoint" />
            <mxPoint as="offset" />
          </mxGeometry>
        </mxCell>
        <mxCell id="kIjc9tb8nOZSVFgZSKF5-28" value="return" style="html=1;verticalAlign=bottom;endArrow=block;edgeStyle=elbowEdgeStyle;elbow=vertical;curved=0;rounded=0;" parent="1" edge="1">
          <mxGeometry relative="1" as="geometry">
            <mxPoint x="645" y="955" as="sourcePoint" />
            <Array as="points">
              <mxPoint x="590" y="955" />
            </Array>
            <mxPoint x="255" y="955" as="targetPoint" />
          </mxGeometry>
        </mxCell>
        <mxCell id="kIjc9tb8nOZSVFgZSKF5-29" value="&lt;div style=&quot;font-size: 12px; background-color: rgb(251, 251, 251);&quot;&gt;거래연관관계 INSERT (TRSC_RELATION)&lt;/div&gt;&lt;div style=&quot;font-size: 12px; background-color: rgb(251, 251, 251);&quot;&gt;&lt;span style=&quot;background-color: initial;&quot;&gt;주체가 되는 카카오고객번호를 Key로&amp;nbsp;&lt;/span&gt;&lt;span style=&quot;background-color: initial;&quot;&gt;상대거래종류코드(타행)&lt;/span&gt;&lt;/div&gt;&lt;div style=&quot;font-size: 12px; background-color: rgb(251, 251, 251);&quot;&gt;&lt;span style=&quot;background-color: initial;&quot;&gt;상대연관번호까지 저장&lt;/span&gt;&lt;/div&gt;" style="html=1;verticalAlign=bottom;endArrow=block;edgeStyle=elbowEdgeStyle;elbow=vertical;curved=0;rounded=0;align=center;" parent="1" edge="1" source="kIjc9tb8nOZSVFgZSKF5-26">
          <mxGeometry relative="1" as="geometry">
            <mxPoint x="680" y="935" as="sourcePoint" />
            <Array as="points">
              <mxPoint x="660" y="935" />
            </Array>
            <mxPoint x="1049.5" y="934.5" as="targetPoint" />
            <mxPoint as="offset" />
          </mxGeometry>
        </mxCell>
        <mxCell id="kIjc9tb8nOZSVFgZSKF5-30" value="return" style="html=1;verticalAlign=bottom;endArrow=block;edgeStyle=elbowEdgeStyle;elbow=vertical;curved=0;rounded=0;" parent="1" edge="1">
          <mxGeometry relative="1" as="geometry">
            <mxPoint x="645" y="869.41" as="sourcePoint" />
            <Array as="points">
              <mxPoint x="590" y="869.41" />
            </Array>
            <mxPoint x="255" y="869.41" as="targetPoint" />
          </mxGeometry>
        </mxCell>
        <mxCell id="kIjc9tb8nOZSVFgZSKF5-32" value="&lt;div style=&quot;font-size: 12px; background-color: rgb(251, 251, 251);&quot;&gt;카카오고객거래내역 INSERT (KAKAO_CUSTOMER_TRSC_HIS)&lt;/div&gt;&lt;div style=&quot;font-size: 12px; background-color: rgb(251, 251, 251);&quot;&gt;진행코드-타행이체완료&lt;/div&gt;" style="html=1;verticalAlign=bottom;endArrow=block;edgeStyle=elbowEdgeStyle;elbow=vertical;curved=0;rounded=0;align=center;" parent="1" edge="1" target="7ABqUD8M8o28JcpTFlhN-5">
          <mxGeometry relative="1" as="geometry">
            <mxPoint x="655" y="850" as="sourcePoint" />
            <Array as="points">
              <mxPoint x="790" y="850" />
            </Array>
            <mxPoint x="1030" y="850" as="targetPoint" />
            <mxPoint as="offset" />
          </mxGeometry>
        </mxCell>
        <mxCell id="kIjc9tb8nOZSVFgZSKF5-33" value="" style="html=1;points=[];perimeter=orthogonalPerimeter;outlineConnect=0;targetShapes=umlLifeline;portConstraint=eastwest;newEdgeStyle={&quot;edgeStyle&quot;:&quot;elbowEdgeStyle&quot;,&quot;elbow&quot;:&quot;vertical&quot;,&quot;curved&quot;:0,&quot;rounded&quot;:0};" parent="1" vertex="1">
          <mxGeometry x="645" y="980" width="10" height="60" as="geometry" />
        </mxCell>
        <mxCell id="kIjc9tb8nOZSVFgZSKF5-34" value="원거래 내역조회" style="html=1;verticalAlign=bottom;endArrow=block;edgeStyle=elbowEdgeStyle;elbow=vertical;curved=0;rounded=0;" parent="1" edge="1">
          <mxGeometry relative="1" as="geometry">
            <mxPoint x="255" y="990" as="sourcePoint" />
            <Array as="points">
              <mxPoint x="380" y="990" />
            </Array>
            <mxPoint x="645" y="990" as="targetPoint" />
            <mxPoint as="offset" />
          </mxGeometry>
        </mxCell>
        <mxCell id="kIjc9tb8nOZSVFgZSKF5-35" value="return" style="html=1;verticalAlign=bottom;endArrow=block;edgeStyle=elbowEdgeStyle;elbow=vertical;curved=0;rounded=0;" parent="1" edge="1" target="aM9ryv3xv72pqoxQDRHE-2" source="kIjc9tb8nOZSVFgZSKF5-33">
          <mxGeometry relative="1" as="geometry">
            <mxPoint x="595" y="1030" as="sourcePoint" />
            <Array as="points">
              <mxPoint x="360" y="1030" />
            </Array>
            <mxPoint x="320" y="1030" as="targetPoint" />
          </mxGeometry>
        </mxCell>
        <mxCell id="kIjc9tb8nOZSVFgZSKF5-36" value="&lt;div style=&quot;font-size: 12px; background-color: rgb(251, 251, 251);&quot;&gt;거래연관관계 SELECT (TRSC_RELATION)&lt;/div&gt;&lt;div style=&quot;font-size: 12px; background-color: rgb(251, 251, 251);&quot;&gt;상대거래를 기준으로 원거래 정보 조회&lt;/div&gt;" style="html=1;verticalAlign=bottom;endArrow=block;edgeStyle=elbowEdgeStyle;elbow=vertical;curved=0;rounded=0;align=center;" parent="1" edge="1" source="kIjc9tb8nOZSVFgZSKF5-33">
          <mxGeometry x="0.0013" relative="1" as="geometry">
            <mxPoint x="680" y="1010" as="sourcePoint" />
            <Array as="points" />
            <mxPoint x="1049.5" y="1009.5" as="targetPoint" />
            <mxPoint as="offset" />
          </mxGeometry>
        </mxCell>
        <mxCell id="kIjc9tb8nOZSVFgZSKF5-37" value="" style="html=1;points=[];perimeter=orthogonalPerimeter;outlineConnect=0;targetShapes=umlLifeline;portConstraint=eastwest;newEdgeStyle={&quot;edgeStyle&quot;:&quot;elbowEdgeStyle&quot;,&quot;elbow&quot;:&quot;vertical&quot;,&quot;curved&quot;:0,&quot;rounded&quot;:0};" parent="1" vertex="1">
          <mxGeometry x="445" y="1050" width="10" height="50" as="geometry" />
        </mxCell>
        <mxCell id="kIjc9tb8nOZSVFgZSKF5-38" value="원거래 변경" style="html=1;verticalAlign=bottom;endArrow=block;edgeStyle=elbowEdgeStyle;elbow=vertical;curved=0;rounded=0;" parent="1" edge="1">
          <mxGeometry relative="1" as="geometry">
            <mxPoint x="255" y="1060" as="sourcePoint" />
            <Array as="points">
              <mxPoint x="380" y="1060" />
            </Array>
            <mxPoint as="offset" />
            <mxPoint x="445" y="1060" as="targetPoint" />
          </mxGeometry>
        </mxCell>
        <mxCell id="kIjc9tb8nOZSVFgZSKF5-39" value="return" style="html=1;verticalAlign=bottom;endArrow=block;edgeStyle=elbowEdgeStyle;elbow=vertical;curved=0;rounded=0;" parent="1" source="kIjc9tb8nOZSVFgZSKF5-37" edge="1" target="aM9ryv3xv72pqoxQDRHE-2">
          <mxGeometry relative="1" as="geometry">
            <mxPoint x="370.12" y="1090" as="sourcePoint" />
            <Array as="points">
              <mxPoint x="385.12" y="1090" />
            </Array>
            <mxPoint x="310" y="1090" as="targetPoint" />
          </mxGeometry>
        </mxCell>
        <mxCell id="kIjc9tb8nOZSVFgZSKF5-40" value="수신거래내역 UPDATE (DEPOSIT_TRSC_HIS)&lt;div&gt;진행코드-송금완료&lt;/div&gt;" style="html=1;verticalAlign=bottom;endArrow=block;edgeStyle=elbowEdgeStyle;elbow=vertical;curved=0;rounded=0;" parent="1" edge="1">
          <mxGeometry relative="1" as="geometry">
            <mxPoint x="455" y="1080" as="sourcePoint" />
            <Array as="points">
              <mxPoint x="590.25" y="1080" />
            </Array>
            <mxPoint x="1049.75" y="1080" as="targetPoint" />
            <mxPoint as="offset" />
          </mxGeometry>
        </mxCell>
        <mxCell id="kIjc9tb8nOZSVFgZSKF5-41" value="입금완료" style="html=1;verticalAlign=bottom;startArrow=oval;endArrow=block;startSize=8;edgeStyle=elbowEdgeStyle;elbow=vertical;curved=0;rounded=0;" parent="1" edge="1">
          <mxGeometry relative="1" as="geometry">
            <mxPoint x="250" y="1240" as="sourcePoint" />
            <mxPoint x="150" y="1240" as="targetPoint" />
            <Array as="points">
              <mxPoint x="210" y="1240" />
            </Array>
          </mxGeometry>
        </mxCell>
        <mxCell id="kIjc9tb8nOZSVFgZSKF5-42" value="" style="shape=umlActor;verticalLabelPosition=bottom;verticalAlign=top;html=1;outlineConnect=0;" parent="1" vertex="1">
          <mxGeometry x="110" y="1210" width="30" height="60" as="geometry" />
        </mxCell>
      </root>
    </mxGraphModel>
  </diagram>
</mxfile>
